Coordinates
version=1
nRows=17
nColumns=24
inDegrees=yes

Units are S.I. units (second, meters, Newtons, ...)
Angles are in degrees.

endheader
time	pelvis_tilt	pelvis_list	pelvis_rotation	pelvis_tx	pelvis_ty	pelvis_tz	hip_flexion_r	hip_adduction_r	hip_rotation_r	knee_angle_r	ankle_angle_r	subtalar_angle_r	mtp_angle_r	hip_flexion_l	hip_adduction_l	hip_rotation_l	knee_angle_l	ankle_angle_l	subtalar_angle_l	mtp_angle_l	lumbar_extension	lumbar_bending	lumbar_rotation
      3.66500000	     -0.03662548	      7.23958580	     -2.89180883	     -0.39405226	      0.93678781	      0.24487120	     23.32277394	     -5.96529567	      2.03396084	    -67.54639373	      6.99608146	    -18.43284591	      0.00000000	     12.12109066	     13.73486619	      3.46896423	    -22.38392789	     15.88039536	    -18.64005176	      0.00000000	    -10.76002152	     -9.25035044	     -9.14909322
      3.67000000	      0.02297712	      6.95243982	     -2.69534716	     -0.38698797	      0.93836279	      0.24476906	     23.72294894	     -5.59283492	      2.06393330	    -66.43337851	      7.33445115	    -18.20332161	      0.00000000	     11.15344467	     13.53181636	      4.10507323	    -21.71876701	     15.77110251	    -18.99434596	      0.00000000	    -10.82126554	     -8.82397554	     -9.50089343
      3.67500000	      0.06659349	      6.67413985	     -2.48761402	     -0.37994952	      0.93982488	      0.24466165	     24.11021581	     -5.24016041	      2.07396755	    -65.23841261	      7.61806161	    -18.04608285	      0.00000000	     10.21558441	     13.32447284	      4.72523260	    -21.06382629	     15.65940112	    -19.34155694	      0.00000000	    -10.86771327	     -8.40824722	     -9.85864063
      3.68000000	      0.09964738	      6.40977305	     -2.27444456	     -0.37293142	      0.94117369	      0.24454699	     24.48178130	     -4.91443891	      2.06769072	    -63.96649443	      7.84756526	    -17.95123657	      0.00000000	      9.30111626	     13.11909549	      5.32267361	    -20.41564846	     15.54818325	    -19.68650728	      0.00000000	    -10.90469142	     -8.00851432	    -10.22183702
      3.68500000	      0.11799812	      6.16110757	     -2.05224366	     -0.36592139	      0.94240281	      0.24443738	     24.83979714	     -4.61593762	      2.04641477	    -62.61972522	      8.03335024	    -17.91489970	      0.00000000	      8.41239203	     12.91559259	      5.89276180	    -19.77299603	     15.44000463	    -20.01432577	      0.00000000	    -10.92716411	     -7.62984386	    -10.59062651
      3.69000000	      0.12354021	      5.93030424	     -1.82309334	     -0.35892830	      0.94351109	      0.24430952	     25.18180343	     -4.35072785	      2.00842463	    -61.19591916	      8.17967826	    -17.93435470	      0.00000000	      7.55215837	     12.71967912	      6.43736267	    -19.14535184	     15.34477836	    -20.31829912	      0.00000000	    -10.93465748	     -7.26805464	    -10.96151189
      3.69500000	      0.11922707	      5.71891221	     -1.58878385	     -0.35194763	      0.94450063	      0.24419631	     25.50704779	     -4.11889046	      1.95620311	    -59.70203965	      8.29381042	    -17.98886056	      0.00000000	      6.71007811	     12.52942839	      6.94867843	    -18.51722165	     15.25765125	    -20.60368659	      0.00000000	    -10.93411018	     -6.93373613	    -11.33413092
      3.70000000	      0.10964756	      5.52810884	     -1.35203642	     -0.34498332	      0.94537608	      0.24407676	     25.81160392	     -3.92355821	      1.89004902	    -58.14070546	      8.37882313	    -18.06707822	      0.00000000	      5.88322560	     12.35008474	      7.43020034	    -17.89365064	     15.17678462	    -20.87191743	      0.00000000	    -10.93034790	     -6.62413805	    -11.71288643
      3.70500000	      0.09591129	      5.35836288	     -1.11170907	     -0.33801186	      0.94614074	      0.24396516	     26.09027278	     -3.76480189	      1.81013544	    -56.51162768	      8.44176180	    -18.15485900	      0.00000000	      5.06653167	     12.18130759	      7.88189682	    -17.27213123	     15.09921505	    -21.12598854	      0.00000000	    -10.92371372	     -6.34141304	    -12.09527737
      3.71000000	      0.06535914	      5.20971405	     -0.87030158	     -0.33104877	      0.94676571	      0.24386370	     26.36036045	     -3.64196573	      1.71271052	    -54.81807039	      8.48270247	    -18.26055699	      0.00000000	      4.28026561	     12.02312067	      8.29652854	    -16.66594817	     15.05502101	    -21.33319527	      0.00000000	    -10.89500330	     -6.08654918	    -12.46647903
      3.71500000	      0.04301478	      5.08192493	     -0.62738135	     -0.32408520	      0.94729773	      0.24376302	     26.59163977	     -3.55866448	      1.59640285	    -53.06092859	      8.51466201	    -18.34368696	      0.00000000	      3.48866336	     11.87845437	      8.68557851	    -16.05727130	     15.00062799	    -21.54245524	      0.00000000	    -10.87970575	     -5.85685207	    -12.84600738
      3.72000000	      0.01773853	      4.97377708	     -0.39119981	     -0.31712625	      0.94770971	      0.24366876	     26.79966109	     -3.51102866	      1.46207701	    -51.24610542	      8.55234815	    -18.39109452	      0.00000000	      2.70933231	     11.74709286	      9.03212344	    -15.45630025	     14.94836971	    -21.74793045	      0.00000000	    -10.86297629	     -5.65438305	    -13.20469297
      3.72500000	     -0.07846278	      4.87240460	     -0.15493757	     -0.31016743	      0.94790434	      0.24359989	     27.06026794	     -3.48106442	      1.30402885	    -49.37886531	      8.55004812	    -18.43384598	      0.00000000	      2.02525072	     11.60910427	      9.32035123	    -14.89086440	     14.99950792	    -21.81883857	      0.00000000	    -10.75724470	     -5.46361820	    -13.51088334
      3.73000000	     -0.09399421	      4.80844878	      0.09356413	     -0.30323033	      0.94811821	      0.24354371	     27.20004662	     -3.50576576	      1.13185691	    -47.45421997	      8.54531943	    -18.43821380	      0.00000000	      1.24952234	     11.50681088	      9.64999625	    -14.31367222	     14.98250717	    -21.95212846	      0.00000000	    -10.76354907	     -5.32305952	    -13.93593765
      3.73500000	     -0.18037887	      4.74522379	      0.32724032	     -0.29627172	      0.94810983	      0.24348348	     27.38901585	     -3.54462597	      0.93431785	    -45.48070240	      8.57361752	    -18.35324894	      0.00000000	      0.57171159	     11.40061666	      9.88217452	    -13.76970230	     15.02865831	    -22.03224109	      0.00000000	    -10.68026234	     -5.17899343	    -14.22095925
      3.74000000	     -0.23878692	      4.70331203	      0.56690677	     -0.28932494	      0.94804071	      0.24342942	     27.51930433	     -3.62151678	      0.70577202	    -43.46154216	      8.59147928	    -18.22126990	      0.00000000	     -0.13081492	     11.31202985	     10.12393416	    -13.23682706	     15.07012313	    -22.10728439	      0.00000000	    -10.63696328	     -5.06280960	    -14.57545217
      3.74500000	     -0.26723420	      4.69556439	      0.79761029	     -0.28240175	      0.94791510	      0.24340122	     27.59639338	     -3.74167372	      0.46436780	    -41.41045716	      8.60640477	    -18.01540778	      0.00000000	     -0.86217505	     11.25412077	     10.37161634	    -12.70797570	     15.08338786	    -22.19304293	      0.00000000	    -10.63906528	     -4.98918979	    -14.95666336
